<svg width="1920" height="485" viewBox="0 0 1920 485" fill="none" xmlns="http://www.w3.org/2000/svg">
<rect width="1924" height="456" transform="translate(-2)" fill="#FEEFD0"/>
<g filter="url(#filter0_dd_401_1780)">
<rect x="345" y="130" width="1230" height="246" rx="46" fill="white"/>
<g clip-path="url(#clip0_401_1780)">
<path d="M531.601 259.266L479.79 203.148C476.885 200.002 472.551 198.612 468.359 199.467L462.21 200.728L439.552 205.367L439.112 205.455C438.889 205.5 438.67 205.552 438.454 205.61C438.341 205.64 438.225 205.674 438.109 205.709C435.7 206.418 433.6 207.842 432.061 209.752C431.066 210.984 430.302 212.418 429.84 213.992L421.387 242.845C420.182 246.964 421.221 251.416 424.135 254.571L475.926 310.667C478.571 313.53 482.13 315.039 485.735 315.166C488.676 315.273 491.649 314.458 494.187 312.703C494.727 312.33 495.249 311.914 495.749 311.456L500.37 307.188L530.808 279.086C536.501 273.831 536.855 264.956 531.601 259.266ZM452.471 235.922C452.353 236.116 452.237 236.302 452.113 236.482C452.061 236.562 452.002 236.645 451.944 236.719C451.757 236.968 451.556 237.206 451.346 237.428C451.275 237.505 451.207 237.579 451.133 237.647C451.062 237.725 450.985 237.797 450.91 237.861C448.362 240.193 444.502 240.723 441.349 238.903C437.45 236.649 436.117 231.675 438.368 227.78C440.417 224.227 444.733 222.806 448.437 224.291C448.685 224.39 448.936 224.503 449.184 224.632C449.284 224.69 449.386 224.74 449.491 224.8C453.384 227.048 454.717 232.022 452.471 235.922Z" fill="#E8E8E8"/>
<path d="M475.926 310.667C478.571 313.53 482.13 315.039 485.735 315.166C488.676 315.273 491.649 314.458 494.187 312.703C494.727 312.33 495.249 311.914 495.749 311.456L500.37 307.188L530.808 279.086C536.501 273.831 536.855 264.956 531.601 259.266L507.397 233.05L477.405 215.734C476.305 214.955 475.071 214.348 473.738 213.961L467.706 212.215L445.061 205.661C443.204 205.124 441.285 205.048 439.45 205.387L439.143 205.449C439.049 205.469 438.955 205.492 438.861 205.514C438.741 205.541 438.621 205.567 438.504 205.598C438.293 205.654 438.084 205.72 437.876 205.787C437.792 205.814 437.708 205.843 437.625 205.872C435.86 206.49 434.229 207.511 432.882 208.904L432.058 209.757C431.064 210.987 430.301 212.42 429.84 213.992L421.387 242.845C420.182 246.964 421.22 251.416 424.135 254.571L475.926 310.667ZM438.368 227.78C440.417 224.227 444.733 222.805 448.437 224.291C448.685 224.39 448.936 224.503 449.184 224.632C449.284 224.69 449.386 224.74 449.491 224.8C453.384 227.048 454.717 232.022 452.471 235.922C452.353 236.116 452.237 236.302 452.113 236.482C452.061 236.562 452.002 236.645 451.944 236.719C451.757 236.968 451.556 237.206 451.346 237.428C451.275 237.505 451.207 237.579 451.133 237.647C451.062 237.725 450.985 237.797 450.91 237.861C448.362 240.193 444.502 240.723 441.349 238.903C437.45 236.649 436.117 231.675 438.368 227.78Z" fill="url(#paint0_linear_401_1780)"/>
<path d="M480.048 219.519L474.673 216.271L454.497 204.08C450.624 201.741 445.774 201.733 441.893 204.06L416.11 219.527C412.429 221.734 410.175 225.71 410.175 230.004V306.354C410.175 314.1 416.454 320.379 424.204 320.379H471.922C479.668 320.379 485.947 314.1 485.947 306.354V229.976C485.947 225.694 483.708 221.734 480.048 219.519ZM442.306 235.226C439.126 232.042 439.126 226.892 442.306 223.712C445.205 220.813 449.743 220.557 452.935 222.947C453.151 223.107 453.363 223.284 453.568 223.472C453.652 223.552 453.736 223.628 453.82 223.712C457 226.892 457 232.042 453.82 235.226C453.66 235.382 453.499 235.535 453.331 235.675C453.259 235.739 453.183 235.803 453.107 235.859C452.863 236.052 452.607 236.232 452.346 236.392C452.258 236.448 452.17 236.5 452.082 236.548C451.994 236.604 451.902 236.652 451.814 236.696C448.746 238.29 444.881 237.801 442.306 235.226Z" fill="#FDC347"/>
<path d="M485.947 306.354C485.947 306.354 485.947 306.017 485.947 305.394L438.9 258.358C437.074 256.898 434.658 256.167 431.649 256.167C425.039 256.167 421.734 259.212 421.734 265.302V276.293C421.734 279.59 422.712 281.986 424.649 283.498L461.531 320.38H471.922C479.668 320.379 485.947 314.1 485.947 306.354Z" fill="url(#paint1_linear_401_1780)"/>
<path d="M463.649 254.088C463 253.543 462.278 253.271 461.48 253.271C460.393 253.271 459.653 253.716 459.258 254.608L432.094 309.174C431.897 309.521 431.799 309.892 431.799 310.288C431.799 310.981 432.072 311.612 432.621 312.182L440.819 320.379H471.922C479.668 320.379 485.947 314.1 485.947 306.354C485.947 306.354 485.947 296.394 485.947 283.987V276.495L463.649 254.088Z" fill="url(#paint2_linear_401_1780)"/>
<path d="M471.65 283.385C469.825 281.925 467.408 281.194 464.399 281.194C457.79 281.194 454.485 284.239 454.485 290.329V301.32C454.485 304.616 455.462 307.013 457.399 308.525L469.254 320.379H471.922C479.667 320.379 485.947 314.1 485.947 306.354C485.947 306.354 485.947 302.963 485.947 297.678L471.65 283.385Z" fill="url(#paint3_linear_401_1780)"/>
<path d="M421.734 276.293V265.302C421.734 259.212 425.039 256.167 431.649 256.167C434.658 256.167 437.075 256.898 438.9 258.358C440.724 259.819 441.637 262.134 441.637 265.301V276.292C441.637 279.461 440.724 281.776 438.9 283.236C437.074 284.697 434.658 285.427 431.649 285.427C425.039 285.427 421.734 282.382 421.734 276.293ZM427.007 276.169C427.007 279.024 428.554 280.452 431.649 280.452C434.792 280.452 436.364 279.024 436.364 276.169V265.426C436.364 262.571 434.792 261.143 431.649 261.143C428.554 261.143 427.007 262.571 427.007 265.426C427.007 265.426 427.007 276.169 427.007 276.169ZM431.799 310.288C431.799 309.892 431.897 309.521 432.094 309.174L459.259 254.608C459.653 253.716 460.394 253.271 461.48 253.271C462.278 253.271 463.001 253.543 463.65 254.088C464.298 254.633 464.623 255.301 464.623 256.093C464.623 256.49 464.549 256.885 464.401 257.281L437.235 311.625C436.79 312.565 435.951 313.036 434.718 313.036C433.869 313.036 433.17 312.75 432.621 312.182C432.073 311.612 431.799 310.981 431.799 310.288ZM454.485 301.473V290.398C454.485 284.262 457.79 281.194 464.4 281.194C467.408 281.194 469.826 281.931 471.651 283.402C473.475 284.874 474.388 287.206 474.388 290.398V301.473C474.388 304.666 473.475 306.998 471.651 308.47C469.825 309.941 467.408 310.677 464.4 310.677C457.79 310.677 454.485 307.609 454.485 301.473ZM459.758 301.37C459.758 304.257 461.305 305.701 464.399 305.701C467.542 305.701 469.115 304.258 469.115 301.37V290.501C469.115 287.614 467.542 286.169 464.399 286.169C461.305 286.169 459.758 287.614 459.758 290.501V301.37Z" fill="url(#paint4_linear_401_1780)"/>
<path d="M485.947 229.975V255.938L454.483 224.474C454.28 224.211 454.06 223.954 453.822 223.713C453.736 223.627 453.651 223.553 453.569 223.471C453.512 223.417 453.455 223.367 453.395 223.321C453.246 223.186 453.089 223.062 452.936 222.948C449.892 220.669 445.628 220.793 442.727 223.325V203.603C446.08 201.932 450.017 201.893 453.395 203.489C453.768 203.664 454.138 203.863 454.497 204.08L474.675 216.27L480.048 219.52C483.707 221.732 485.947 225.693 485.947 229.975Z" fill="url(#paint5_linear_401_1780)"/>
<path d="M448.061 233.019C445.115 233.019 442.727 230.631 442.727 227.685V190.334C442.727 187.388 445.115 185 448.061 185C451.007 185 453.395 187.388 453.395 190.334V227.685C453.395 230.631 451.007 233.019 448.061 233.019Z" fill="url(#paint6_linear_401_1780)"/>
</g>
<path d="M568.625 243H575.485C582.135 243 586.72 239.395 586.72 231.52C586.72 223.61 582.135 220.215 575.17 220.215H568.625V243ZM574.085 238.625V224.59H574.855C578.53 224.59 581.155 226.095 581.155 231.52C581.155 236.91 578.53 238.625 574.855 238.625H574.085ZM594.9 243.42C596.86 243.42 598.435 242.545 599.87 241.25H600.01L600.395 243H604.805V233.13C604.805 227.67 602.285 225.185 597.805 225.185C595.075 225.185 592.59 226.06 590.315 227.46L592.205 230.96C593.955 229.98 595.355 229.49 596.755 229.49C598.54 229.49 599.275 230.33 599.415 231.765C592.555 232.465 589.72 234.46 589.72 238.135C589.72 241.04 591.715 243.42 594.9 243.42ZM596.755 239.22C595.565 239.22 594.9 238.73 594.9 237.715C594.9 236.49 595.95 235.545 599.415 235.09V237.855C598.575 238.695 597.84 239.22 596.755 239.22ZM609.05 243H614.44V225.605H609.05V243ZM611.745 223.155C613.53 223.155 614.79 222.07 614.79 220.355C614.79 218.675 613.53 217.59 611.745 217.59C609.96 217.59 608.7 218.675 608.7 220.355C608.7 222.07 609.96 223.155 611.745 223.155ZM623.794 243.42C624.984 243.42 625.894 243.21 626.489 242.965L625.859 238.975C625.579 239.045 625.439 239.045 625.229 239.045C624.809 239.045 624.249 238.695 624.249 237.575V218.535H618.859V237.365C618.859 241.005 620.084 243.42 623.794 243.42ZM631.146 249.72C635.311 249.72 637.166 247.515 638.881 243.035L644.866 225.605H639.686L637.691 232.815C637.236 234.46 636.886 236.105 636.501 237.75H636.361C635.906 236.035 635.521 234.425 635.031 232.815L632.651 225.605H627.226L633.911 242.51L633.666 243.35C633.246 244.61 632.406 245.485 630.726 245.485C630.376 245.485 630.131 245.45 629.571 245.31L628.626 249.3C629.326 249.58 630.026 249.72 631.146 249.72ZM568.625 285H575.485C582.135 285 586.72 281.395 586.72 273.52C586.72 265.61 582.135 262.215 575.17 262.215H568.625V285ZM574.085 280.625V266.59H574.855C578.53 266.59 581.155 268.095 581.155 273.52C581.155 278.91 578.53 280.625 574.855 280.625H574.085ZM590.49 285H595.88V267.605H590.49V285ZM593.185 265.155C594.97 265.155 596.23 264.07 596.23 262.355C596.23 260.675 594.97 259.59 593.185 259.59C591.4 259.59 590.14 260.675 590.14 262.355C590.14 264.07 591.4 265.155 593.185 265.155ZM605.515 285.42C610.24 285.42 612.76 282.935 612.76 279.75C612.76 276.88 610.66 275.305 608 274.465C605.795 273.765 604.815 273.345 604.815 272.435C604.815 271.665 605.41 271.175 606.67 271.175C607.86 271.175 609.155 271.525 610.415 272.435L612.725 269.39C611.22 268.13 609.05 267.185 606.495 267.185C602.435 267.185 599.775 269.39 599.775 272.68C599.775 275.375 601.875 276.95 604.36 277.86C606.215 278.56 607.685 279.015 607.685 280.065C607.685 280.905 607.09 281.43 605.62 281.43C604.255 281.43 602.68 281.01 601.07 279.75L598.795 282.795C600.545 284.51 603.205 285.42 605.515 285.42ZM623.585 285.42C625.44 285.42 627.645 284.895 629.325 283.355L627.225 279.96C626.35 280.625 625.37 281.045 624.215 281.045C622.08 281.045 620.47 279.19 620.47 276.285C620.47 273.415 621.975 271.525 624.39 271.525C625.16 271.525 625.825 271.77 626.63 272.365L629.15 269.04C627.855 267.92 626.21 267.185 624.075 267.185C619.245 267.185 614.94 270.51 614.94 276.285C614.94 282.06 618.685 285.42 623.585 285.42ZM638.86 285.42C643.305 285.42 647.4 282.06 647.4 276.285C647.4 270.51 643.305 267.185 638.86 267.185C634.45 267.185 630.355 270.51 630.355 276.285C630.355 282.06 634.45 285.42 638.86 285.42ZM638.86 281.045C636.83 281.045 635.885 279.19 635.885 276.285C635.885 273.415 636.83 271.525 638.86 271.525C640.89 271.525 641.835 273.415 641.835 276.285C641.835 279.19 640.89 281.045 638.86 281.045ZM656.067 285.42C658.412 285.42 660.057 284.335 661.492 282.62H661.632L662.017 285H666.427V267.605H661.002V279.015C660.057 280.31 659.322 280.8 658.097 280.8C656.697 280.8 656.067 280.1 656.067 277.685V267.605H650.642V278.385C650.642 282.725 652.252 285.42 656.067 285.42ZM670.847 285H676.237V273.345C677.322 272.365 678.057 271.77 679.282 271.77C680.682 271.77 681.312 272.505 681.312 274.92V285H686.737V274.22C686.737 269.88 685.127 267.185 681.347 267.185C678.967 267.185 677.217 268.375 675.782 269.775H675.642L675.257 267.605H670.847V285ZM697.803 285.42C699.518 285.42 700.848 285.07 701.758 284.72L700.918 280.94C700.463 281.115 699.868 281.185 699.308 281.185C698.013 281.185 697.103 280.45 697.103 278.49V271.84H701.198V267.605H697.103V262.285H692.623L691.993 267.605L689.333 267.78V271.84H691.678V278.56C691.678 282.655 693.463 285.42 697.803 285.42ZM709.421 285.42C714.146 285.42 716.666 282.935 716.666 279.75C716.666 276.88 714.566 275.305 711.906 274.465C709.701 273.765 708.721 273.345 708.721 272.435C708.721 271.665 709.316 271.175 710.576 271.175C711.766 271.175 713.061 271.525 714.321 272.435L716.631 269.39C715.126 268.13 712.956 267.185 710.401 267.185C706.341 267.185 703.681 269.39 703.681 272.68C703.681 275.375 705.781 276.95 708.266 277.86C710.121 278.56 711.591 279.015 711.591 280.065C711.591 280.905 710.996 281.43 709.526 281.43C708.161 281.43 706.586 281.01 704.976 279.75L702.701 282.795C704.451 284.51 707.111 285.42 709.421 285.42Z" fill="url(#paint7_linear_401_1780)"/>
<path fill-rule="evenodd" clip-rule="evenodd" d="M773 301V205H775V301H773Z" fill="#CFCFCF"/>
<g clip-path="url(#clip1_401_1780)">
<path d="M844.864 273.177L831.01 306.797C828.885 311.954 830.336 321 833.288 321H962.712C965.672 321 967.119 311.914 964.978 306.769L950.983 273.127C949.881 270.477 948.415 269 946.891 269H848.976C847.443 269.001 845.968 270.497 844.864 273.177Z" fill="url(#paint8_linear_401_1780)"/>
<path d="M909.75 278.577L909.739 278.569H886.297C888.73 281.293 890.956 283.683 892.798 285.618L909.75 301.542H933.729L909.75 278.577Z" fill="url(#paint9_linear_401_1780)"/>
<path d="M898.018 185C874.851 185 856.07 203.799 856.07 226.987C856.07 245.065 881.56 273.818 892.798 285.618C895.641 288.603 900.396 288.603 903.238 285.618C914.479 273.818 939.97 245.065 939.97 226.987C939.969 203.799 921.188 185 898.018 185ZM898.018 242.959C889.205 242.959 882.061 235.808 882.061 226.988C882.061 218.167 889.206 211.016 898.018 211.016C906.831 211.016 913.975 218.167 913.975 226.988C913.975 235.808 906.831 242.959 898.018 242.959Z" fill="url(#paint10_linear_401_1780)"/>
<circle cx="898" cy="227.396" r="25" fill="white"/>
<path d="M898.018 202C884.012 202 872.658 213.365 872.658 227.383C872.658 241.402 884.012 252.767 898.018 252.767C912.024 252.767 923.378 241.402 923.378 227.383C923.378 213.365 912.023 202 898.018 202ZM898.018 243.355C889.205 243.355 882.061 236.204 882.061 227.383C882.061 218.563 889.205 211.412 898.018 211.412C906.83 211.412 913.975 218.563 913.975 227.383C913.975 236.204 906.83 243.355 898.018 243.355Z" fill="url(#paint11_linear_401_1780)"/>
</g>
<path d="M998.625 243H1012.94V238.45H1004.09V220.215H998.625V243ZM1016.49 243H1021.88V225.605H1016.49V243ZM1019.19 223.155C1020.97 223.155 1022.23 222.07 1022.23 220.355C1022.23 218.675 1020.97 217.59 1019.19 217.59C1017.4 217.59 1016.14 218.675 1016.14 220.355C1016.14 222.07 1017.4 223.155 1019.19 223.155ZM1030.33 243H1036.59L1042.19 225.605H1037.01L1034.88 233.62C1034.46 235.335 1034 237.155 1033.55 238.975H1033.41C1032.99 237.155 1032.53 235.335 1032.11 233.62L1029.94 225.605H1024.52L1030.33 243ZM1052.36 243.42C1054.42 243.42 1056.8 242.755 1058.62 241.46L1056.87 238.205C1055.65 238.905 1054.39 239.29 1053.13 239.29C1050.92 239.29 1049.28 238.275 1048.79 235.93H1059.04C1059.15 235.44 1059.25 234.53 1059.25 233.55C1059.25 228.825 1056.8 225.185 1051.76 225.185C1047.6 225.185 1043.54 228.65 1043.54 234.285C1043.54 240.095 1047.39 243.42 1052.36 243.42ZM1048.72 232.29C1049.07 230.26 1050.36 229.28 1051.9 229.28C1053.86 229.28 1054.63 230.575 1054.63 232.29H1048.72ZM1003.07 285H1008.5V266.765H1014.69V262.215H996.875V266.765H1003.07V285ZM1016.32 285H1021.71V275.06C1022.62 272.75 1024.2 271.91 1025.49 271.91C1026.26 271.91 1026.65 271.98 1027.28 272.12L1028.29 267.535C1027.8 267.29 1027.21 267.185 1026.19 267.185C1024.44 267.185 1022.52 268.27 1021.26 270.615H1021.12L1020.73 267.605H1016.32V285ZM1033.89 285.42C1035.85 285.42 1037.42 284.545 1038.86 283.25H1039L1039.38 285H1043.79V275.13C1043.79 269.67 1041.27 267.185 1036.79 267.185C1034.06 267.185 1031.58 268.06 1029.3 269.46L1031.19 272.96C1032.94 271.98 1034.34 271.49 1035.74 271.49C1037.53 271.49 1038.26 272.33 1038.4 273.765C1031.54 274.465 1028.71 276.46 1028.71 280.135C1028.71 283.04 1030.7 285.42 1033.89 285.42ZM1035.74 281.22C1034.55 281.22 1033.89 280.73 1033.89 279.715C1033.89 278.49 1034.94 277.545 1038.4 277.09V279.855C1037.56 280.695 1036.83 281.22 1035.74 281.22ZM1055.7 285.42C1057.56 285.42 1059.76 284.895 1061.44 283.355L1059.34 279.96C1058.47 280.625 1057.49 281.045 1056.33 281.045C1054.2 281.045 1052.59 279.19 1052.59 276.285C1052.59 273.415 1054.09 271.525 1056.51 271.525C1057.28 271.525 1057.94 271.77 1058.75 272.365L1061.27 269.04C1059.97 267.92 1058.33 267.185 1056.19 267.185C1051.36 267.185 1047.06 270.51 1047.06 276.285C1047.06 282.06 1050.8 285.42 1055.7 285.42ZM1064.45 285H1069.84V267.605H1064.45V285ZM1067.14 265.155C1068.93 265.155 1070.19 264.07 1070.19 262.355C1070.19 260.675 1068.93 259.59 1067.14 259.59C1065.36 259.59 1064.1 260.675 1064.1 262.355C1064.1 264.07 1065.36 265.155 1067.14 265.155ZM1074.25 285H1079.64V273.345C1080.73 272.365 1081.46 271.77 1082.69 271.77C1084.09 271.77 1084.72 272.505 1084.72 274.92V285H1090.14V274.22C1090.14 269.88 1088.53 267.185 1084.75 267.185C1082.37 267.185 1080.62 268.375 1079.19 269.775H1079.05L1078.66 267.605H1074.25V285ZM1100.62 292.315C1106.67 292.315 1110.49 289.725 1110.49 286.05C1110.49 282.9 1108.07 281.605 1103.77 281.605H1101C1099.15 281.605 1098.45 281.22 1098.45 280.38C1098.45 279.82 1098.62 279.54 1099.01 279.19C1099.78 279.4 1100.48 279.505 1101.07 279.505C1104.92 279.505 1108 277.72 1108 273.66C1108 272.82 1107.76 272.015 1107.48 271.525H1110.21V267.605H1103.8C1103 267.325 1102.05 267.185 1101.07 267.185C1097.29 267.185 1093.79 269.25 1093.79 273.485C1093.79 275.515 1094.91 277.125 1096.14 277.965V278.105C1095.02 278.91 1094.21 280.17 1094.21 281.395C1094.21 282.83 1094.88 283.74 1095.79 284.37V284.51C1094.18 285.35 1093.34 286.505 1093.34 287.94C1093.34 291.055 1096.59 292.315 1100.62 292.315ZM1101.07 276.25C1099.81 276.25 1098.87 275.305 1098.87 273.485C1098.87 271.7 1099.78 270.79 1101.07 270.79C1102.37 270.79 1103.28 271.7 1103.28 273.485C1103.28 275.305 1102.37 276.25 1101.07 276.25ZM1101.49 288.955C1099.25 288.955 1097.78 288.325 1097.78 287.065C1097.78 286.505 1098.06 286.015 1098.62 285.525C1099.15 285.665 1099.81 285.735 1101.07 285.735H1102.75C1104.4 285.735 1105.31 285.945 1105.31 286.995C1105.31 288.115 1103.7 288.955 1101.49 288.955Z" fill="url(#paint12_linear_401_1780)"/>
<path fill-rule="evenodd" clip-rule="evenodd" d="M1167 301V205H1169V301H1167Z" fill="#CFCFCF"/>
<path d="M1339 253.5C1339 258.953 1338.17 264.215 1336.62 269.158C1336.45 269.71 1336.27 270.255 1336.08 270.797C1335.47 272.564 1334.76 274.286 1333.96 275.961C1333.3 277.374 1332.57 278.75 1331.78 280.087C1330.2 282.77 1328.39 285.299 1326.38 287.648C1324.27 290.108 1321.94 292.372 1319.41 294.408C1310.41 301.658 1298.96 306 1286.5 306C1257.51 306 1234 282.494 1234 253.5C1234 224.506 1257.51 201 1286.5 201C1315.49 201 1339 224.506 1339 253.5Z" fill="url(#paint13_linear_401_1780)"/>
<path d="M1286.72 218C1284.67 218 1283 248.023 1283 250.1C1283 251.424 1283.68 252.586 1284.7 253.256L1323.06 292C1329.53 285.709 1334.4 277.753 1337 268.815C1328.44 260.226 1286.72 218 1286.72 218Z" fill="url(#paint14_linear_401_1780)"/>
<path d="M1287 257C1288.66 257 1290 255.657 1290 254C1290 252.343 1288.66 251 1287 251C1285.34 251 1284 252.343 1284 254C1284 255.657 1285.34 257 1287 257Z" fill="url(#paint15_linear_401_1780)"/>
<path d="M1286.5 212C1286.09 212 1285.71 212.144 1285.44 212.377C1285.17 212.609 1285 212.931 1285 213.286V222.714C1285 222.98 1285.09 223.228 1285.26 223.433C1285.36 223.57 1285.5 223.688 1285.66 223.78C1285.74 223.827 1285.83 223.866 1285.92 223.899C1286.1 223.964 1286.29 224 1286.5 224C1286.91 224 1287.29 223.856 1287.56 223.623C1287.83 223.391 1288 223.069 1288 222.714V213.286C1288 212.576 1287.33 212 1286.5 212Z" fill="url(#paint16_linear_401_1780)"/>
<path d="M1286.5 283C1285.67 283 1285 283.624 1285 284.393V294.607C1285 294.74 1285.03 294.866 1285.06 294.987C1285.24 295.57 1285.81 296 1286.5 296C1286.71 296 1286.9 295.961 1287.08 295.89C1287.62 295.679 1288 295.184 1288 294.607V284.393C1288 283.624 1287.33 283 1286.5 283Z" fill="url(#paint17_linear_401_1780)"/>
<path d="M1327.61 252H1317.39C1316.62 252 1316 252.672 1316 253.5C1316 254.328 1316.62 255 1317.39 255H1327.61C1328.38 255 1329 254.328 1329 253.5C1329 252.672 1328.38 252 1327.61 252Z" fill="url(#paint18_linear_401_1780)"/>
<path d="M1257 253.5C1257 253.189 1256.92 252.9 1256.78 252.661C1256.69 252.501 1256.57 252.364 1256.43 252.256C1256.23 252.094 1255.98 252 1255.71 252H1246.29C1245.93 252 1245.61 252.168 1245.38 252.439C1245.14 252.711 1245 253.086 1245 253.5C1245 254.329 1245.58 255 1246.29 255H1255.71C1256.07 255 1256.39 254.832 1256.62 254.561C1256.86 254.289 1257 253.914 1257 253.5Z" fill="url(#paint19_linear_401_1780)"/>
<path d="M1309.38 232.633L1316.59 226.138C1317.14 225.649 1317.14 224.856 1316.59 224.367C1316.05 223.878 1315.17 223.878 1314.62 224.367L1307.41 230.862C1306.86 231.351 1306.86 232.144 1307.41 232.633C1307.95 233.122 1308.83 233.122 1309.38 232.633Z" fill="url(#paint20_linear_401_1780)"/>
<path d="M1265.63 274.408C1265.14 273.864 1264.35 273.864 1263.86 274.408L1257.37 281.624C1256.94 282.093 1256.89 282.811 1257.19 283.35C1257.23 283.418 1257.28 283.482 1257.33 283.543C1257.34 283.559 1257.35 283.577 1257.37 283.592C1257.6 283.858 1257.92 283.991 1258.23 283.997C1258.24 283.998 1258.24 284 1258.25 284C1258.57 284 1258.89 283.864 1259.14 283.592L1265.63 276.376C1265.82 276.172 1265.93 275.921 1265.98 275.658C1265.99 275.57 1266 275.481 1266 275.392C1266 275.035 1265.88 274.679 1265.63 274.408Z" fill="url(#paint21_linear_401_1780)"/>
<path d="M1316.6 281.626L1309.38 274.405C1309.21 274.235 1309 274.124 1308.79 274.06C1308.58 273.999 1308.36 273.983 1308.15 274.019C1307.88 274.067 1307.62 274.194 1307.41 274.404C1306.86 274.948 1306.86 275.83 1307.41 276.373L1314.63 283.595C1314.71 283.676 1314.8 283.741 1314.89 283.799C1315.43 284.122 1316.13 284.057 1316.6 283.595C1316.82 283.373 1316.95 283.094 1316.99 282.806C1317.04 282.388 1316.92 281.948 1316.6 281.626Z" fill="url(#paint22_linear_401_1780)"/>
<path d="M1259.14 224.367C1258.89 224.122 1258.57 224 1258.25 224C1258.17 224 1258.09 224.008 1258.01 224.023C1257.78 224.069 1257.55 224.183 1257.37 224.367C1257.12 224.611 1257 224.932 1257 225.253C1257 225.333 1257.01 225.413 1257.02 225.492C1257.07 225.729 1257.18 225.955 1257.37 226.138L1263.86 232.633C1263.87 232.644 1263.89 232.652 1263.9 232.662C1264.01 232.769 1264.14 232.853 1264.28 232.908C1264.43 232.97 1264.59 233 1264.75 233C1265.07 233 1265.39 232.878 1265.63 232.633C1265.82 232.45 1265.93 232.223 1265.98 231.987C1265.99 231.908 1266 231.828 1266 231.747C1266 231.427 1265.88 231.106 1265.63 230.862L1259.14 224.367Z" fill="url(#paint23_linear_401_1780)"/>
<path d="M1334 276.393C1333.34 277.818 1332.61 279.206 1331.82 280.555C1330.25 283.262 1328.45 285.813 1326.43 288.181C1324.33 290.663 1322.01 292.946 1319.49 295L1282.66 257.794C1280.45 255.554 1280.45 251.923 1282.66 249.683C1282.76 249.584 1282.86 249.491 1282.96 249.401C1285.09 247.533 1288.26 247.533 1290.38 249.401C1290.48 249.491 1290.58 249.584 1290.68 249.683C1290.78 249.782 1290.88 249.888 1290.96 249.995H1290.97C1291.03 249.998 1291.1 250.001 1291.17 250.004C1291.29 250.014 1291.43 250.021 1291.58 250.031C1292.35 250.081 1293.41 250.163 1294.64 250.276C1295 250.309 1295.39 250.346 1295.78 250.385C1296.07 250.415 1296.36 250.442 1296.66 250.475C1296.91 250.501 1297.17 250.528 1297.43 250.554C1297.62 250.574 1297.81 250.597 1298 250.617C1298.31 250.65 1298.62 250.687 1298.93 250.723C1300.41 250.896 1301.94 251.091 1303.41 251.31C1303.61 251.34 1303.81 251.37 1304 251.403C1304.03 251.406 1304.07 251.409 1304.1 251.416C1304.32 251.452 1304.55 251.489 1304.77 251.522C1305 251.562 1305.22 251.598 1305.43 251.635C1305.58 251.661 1305.72 251.685 1305.86 251.711C1306.08 251.751 1306.3 251.79 1306.52 251.834C1306.63 251.853 1306.74 251.873 1306.84 251.893C1307.06 251.94 1307.28 251.983 1307.49 252.026C1307.55 252.039 1307.61 252.052 1307.68 252.066C1307.76 252.086 1307.85 252.106 1307.93 252.122C1307.97 252.129 1308.01 252.139 1308.05 252.148C1308.17 252.178 1308.29 252.205 1308.4 252.231C1308.48 252.251 1308.56 252.271 1308.64 252.287C1308.94 252.367 1309.23 252.443 1309.5 252.519C1309.56 252.539 1309.62 252.559 1309.68 252.576C1309.73 252.589 1309.78 252.605 1309.82 252.619C1309.89 252.642 1309.96 252.665 1310.02 252.685C1310.04 252.692 1310.07 252.698 1310.09 252.708C1310.22 252.755 1310.34 252.798 1310.46 252.844C1310.47 252.847 1310.48 252.854 1310.49 252.857C1310.55 252.884 1310.61 252.91 1310.67 252.934C1310.81 252.997 1310.94 253.056 1311.05 253.119C1311.1 253.149 1311.14 253.176 1311.18 253.202C1311.32 253.291 1311.43 253.381 1311.5 253.47C1311.52 253.493 1311.53 253.52 1311.55 253.543C1311.55 253.55 1311.55 253.553 1311.55 253.556C1311.57 253.586 1311.58 253.616 1311.59 253.649C1311.6 253.679 1311.6 253.709 1311.6 253.738L1334 276.393Z" fill="url(#paint24_linear_401_1780)"/>
<path d="M1290.73 258C1288.67 258 1287 256.209 1287 254C1287 251.791 1288.67 250 1290.73 250C1292.79 250 1312 251.791 1312 254C1312 256.209 1292.79 258 1290.73 258Z" fill="url(#paint25_linear_401_1780)"/>
<path d="M1291 250.225C1291 252.31 1289.21 254 1287 254C1284.79 254 1283 252.31 1283 250.225C1283 248.14 1284.79 218 1287 218C1289.21 218 1291 248.14 1291 250.225Z" fill="url(#paint26_linear_401_1780)"/>
<path d="M1286.5 259C1289.54 259 1292 256.538 1292 253.5C1292 250.462 1289.54 248 1286.5 248C1283.46 248 1281 250.462 1281 253.5C1281 256.538 1283.46 259 1286.5 259Z" fill="white"/>
<path d="M1355.57 244.739H1349.52H1349.24C1344.85 214.393 1318.59 191 1286.95 191C1252.24 191 1224 219.143 1224 253.736C1224 268.01 1228.94 281.98 1237.91 293.073C1246.74 304 1259.12 311.742 1272.77 314.873C1273.14 314.959 1273.52 315 1273.89 315C1276.14 315 1278.18 313.456 1278.7 311.174C1279.32 308.519 1277.65 305.872 1274.99 305.261C1263.5 302.623 1253.06 296.097 1245.62 286.885C1237.95 277.403 1233.9 265.941 1233.9 253.736C1233.9 224.582 1257.69 200.864 1286.95 200.864C1313.12 200.864 1334.93 219.856 1339.22 244.739H1334C1330.06 244.739 1328.09 249.489 1330.87 252.267L1341.66 263.013C1343.38 264.735 1346.19 264.735 1347.91 263.013L1358.7 252.267C1361.48 249.489 1359.51 244.739 1355.57 244.739Z" fill="url(#paint27_linear_401_1780)"/>
<path d="M1402.01 238.975C1399.03 238.975 1397.14 236.245 1397.14 231.52C1397.14 227.075 1399.03 224.485 1402.01 224.485C1405.02 224.485 1406.87 227.075 1406.87 231.52C1406.87 236.245 1405.02 238.975 1402.01 238.975ZM1409.6 249.44C1411.42 249.44 1412.86 249.09 1413.73 248.635L1412.79 244.75C1412.09 244.96 1411.21 245.1 1410.23 245.1C1408.34 245.1 1406.31 244.54 1405.26 242.965C1409.64 241.635 1412.44 237.575 1412.44 231.52C1412.44 224.065 1408.2 219.795 1402.01 219.795C1395.81 219.795 1391.58 224.03 1391.58 231.52C1391.58 237.925 1394.73 242.125 1399.52 243.175C1401.2 246.815 1404.63 249.44 1409.6 249.44ZM1421.48 243.42C1423.83 243.42 1425.47 242.335 1426.91 240.62H1427.05L1427.43 243H1431.84V225.605H1426.42V237.015C1425.47 238.31 1424.74 238.8 1423.51 238.8C1422.11 238.8 1421.48 238.1 1421.48 235.685V225.605H1416.06V236.385C1416.06 240.725 1417.67 243.42 1421.48 243.42ZM1436.26 243H1441.65V225.605H1436.26V243ZM1438.96 223.155C1440.74 223.155 1442 222.07 1442 220.355C1442 218.675 1440.74 217.59 1438.96 217.59C1437.17 217.59 1435.91 218.675 1435.91 220.355C1435.91 222.07 1437.17 223.155 1438.96 223.155ZM1453.74 243.42C1455.59 243.42 1457.8 242.895 1459.48 241.355L1457.38 237.96C1456.5 238.625 1455.52 239.045 1454.37 239.045C1452.23 239.045 1450.62 237.19 1450.62 234.285C1450.62 231.415 1452.13 229.525 1454.54 229.525C1455.31 229.525 1455.98 229.77 1456.78 230.365L1459.3 227.04C1458.01 225.92 1456.36 225.185 1454.23 225.185C1449.4 225.185 1445.09 228.51 1445.09 234.285C1445.09 240.06 1448.84 243.42 1453.74 243.42ZM1462.48 243H1467.83V238.695L1469.83 236.385L1473.61 243H1479.49L1473.01 232.85L1479.07 225.605H1473.12L1467.94 232.185H1467.83V218.535H1462.48V243ZM1392.63 285H1399.49C1406.14 285 1410.72 281.395 1410.72 273.52C1410.72 265.61 1406.14 262.215 1399.17 262.215H1392.63V285ZM1398.09 280.625V266.59H1398.86C1402.53 266.59 1405.16 268.095 1405.16 273.52C1405.16 278.91 1402.53 280.625 1398.86 280.625H1398.09ZM1422.33 285.42C1424.4 285.42 1426.78 284.755 1428.6 283.46L1426.85 280.205C1425.62 280.905 1424.36 281.29 1423.1 281.29C1420.9 281.29 1419.25 280.275 1418.76 277.93H1429.02C1429.12 277.44 1429.23 276.53 1429.23 275.55C1429.23 270.825 1426.78 267.185 1421.74 267.185C1417.57 267.185 1413.51 270.65 1413.51 276.285C1413.51 282.095 1417.36 285.42 1422.33 285.42ZM1418.69 274.29C1419.04 272.26 1420.34 271.28 1421.88 271.28C1423.84 271.28 1424.61 272.575 1424.61 274.29H1418.69ZM1437.61 285.42C1438.8 285.42 1439.71 285.21 1440.3 284.965L1439.67 280.975C1439.39 281.045 1439.25 281.045 1439.04 281.045C1438.62 281.045 1438.06 280.695 1438.06 279.575V260.535H1432.67V279.365C1432.67 283.005 1433.9 285.42 1437.61 285.42ZM1442.83 285H1448.22V267.605H1442.83V285ZM1445.52 265.155C1447.31 265.155 1448.57 264.07 1448.57 262.355C1448.57 260.675 1447.31 259.59 1445.52 259.59C1443.74 259.59 1442.48 260.675 1442.48 262.355C1442.48 264.07 1443.74 265.155 1445.52 265.155ZM1456.66 285H1462.92L1468.52 267.605H1463.34L1461.21 275.62C1460.79 277.335 1460.33 279.155 1459.88 280.975H1459.74C1459.32 279.155 1458.86 277.335 1458.44 275.62L1456.27 267.605H1450.85L1456.66 285ZM1478.69 285.42C1480.76 285.42 1483.14 284.755 1484.96 283.46L1483.21 280.205C1481.98 280.905 1480.72 281.29 1479.46 281.29C1477.26 281.29 1475.61 280.275 1475.12 277.93H1485.38C1485.48 277.44 1485.59 276.53 1485.59 275.55C1485.59 270.825 1483.14 267.185 1478.1 267.185C1473.93 267.185 1469.87 270.65 1469.87 276.285C1469.87 282.095 1473.72 285.42 1478.69 285.42ZM1475.05 274.29C1475.4 272.26 1476.7 271.28 1478.24 271.28C1480.2 271.28 1480.97 272.575 1480.97 274.29H1475.05ZM1489.04 285H1494.43V275.06C1495.34 272.75 1496.91 271.91 1498.21 271.91C1498.98 271.91 1499.36 271.98 1499.99 272.12L1501.01 267.535C1500.52 267.29 1499.92 267.185 1498.91 267.185C1497.16 267.185 1495.23 268.27 1493.97 270.615H1493.83L1493.45 267.605H1489.04V285ZM1505.53 291.72C1509.69 291.72 1511.55 289.515 1513.26 285.035L1519.25 267.605H1514.07L1512.07 274.815C1511.62 276.46 1511.27 278.105 1510.88 279.75H1510.74C1510.29 278.035 1509.9 276.425 1509.41 274.815L1507.03 267.605H1501.61L1508.29 284.51L1508.05 285.35C1507.63 286.61 1506.79 287.485 1505.11 287.485C1504.76 287.485 1504.51 287.45 1503.95 287.31L1503.01 291.3C1503.71 291.58 1504.41 291.72 1505.53 291.72Z" fill="url(#paint28_linear_401_1780)"/>
</g>
<defs>
<filter id="filter0_dd_401_1780" x="263" y="75" width="1394" height="410" filterUnits="userSpaceOnUse" color-interpolation-filters="sRGB">
<feFlood flood-opacity="0" result="BackgroundImageFix"/>
<feColorMatrix in="SourceAlpha" type="matrix" values="0 0 0 0 0 0 0 0 0 0 0 0 0 0 0 0 0 0 127 0" result="hardAlpha"/>
<feOffset dy="27"/>
<feGaussianBlur stdDeviation="41"/>
<feColorMatrix type="matrix" values="0 0 0 0 1 0 0 0 0 0.680498 0 0 0 0 0 0 0 0 0.28 0"/>
<feBlend mode="normal" in2="BackgroundImageFix" result="effect1_dropShadow_401_1780"/>
<feColorMatrix in="SourceAlpha" type="matrix" values="0 0 0 0 0 0 0 0 0 0 0 0 0 0 0 0 0 0 127 0" result="hardAlpha"/>
<feOffset dy="14"/>
<feGaussianBlur stdDeviation="7.5"/>
<feColorMatrix type="matrix" values="0 0 0 0 1 0 0 0 0 0.680498 0 0 0 0 0 0 0 0 0.01 0"/>
<feBlend mode="normal" in2="effect1_dropShadow_401_1780" result="effect2_dropShadow_401_1780"/>
<feBlend mode="normal" in="SourceGraphic" in2="effect2_dropShadow_401_1780" result="shape"/>
</filter>
<linearGradient id="paint0_linear_401_1780" x1="462.502" y1="199.167" x2="522.935" y2="288.535" gradientUnits="userSpaceOnUse">
<stop stop-color="white"/>
<stop offset="1" stop-color="white" stop-opacity="0"/>
</linearGradient>
<linearGradient id="paint1_linear_401_1780" x1="450.295" y1="289.481" x2="428.05" y2="267.236" gradientUnits="userSpaceOnUse">
<stop stop-color="#FDC347" stop-opacity="0"/>
<stop offset="1" stop-color="#F59500"/>
</linearGradient>
<linearGradient id="paint2_linear_401_1780" x1="473.913" y1="308.915" x2="439.666" y2="274.668" gradientUnits="userSpaceOnUse">
<stop stop-color="#FDC347" stop-opacity="0"/>
<stop offset="1" stop-color="#F59500"/>
</linearGradient>
<linearGradient id="paint3_linear_401_1780" x1="489.497" y1="320.965" x2="455.599" y2="287.065" gradientUnits="userSpaceOnUse">
<stop stop-color="#FDC347" stop-opacity="0"/>
<stop offset="1" stop-color="#F59500"/>
</linearGradient>
<linearGradient id="paint4_linear_401_1780" x1="448.06" y1="267.215" x2="448.06" y2="333.936" gradientUnits="userSpaceOnUse">
<stop stop-color="white"/>
<stop offset="1" stop-color="#E2EDF2"/>
</linearGradient>
<linearGradient id="paint5_linear_401_1780" x1="482.626" y1="236.913" x2="428.275" y2="206.652" gradientUnits="userSpaceOnUse">
<stop stop-color="#FDC347"/>
<stop offset="1" stop-color="#F59500"/>
</linearGradient>
<linearGradient id="paint6_linear_401_1780" x1="439" y1="206.5" x2="455" y2="229" gradientUnits="userSpaceOnUse">
<stop stop-color="#FF7A7A"/>
<stop offset="1" stop-color="#F75900"/>
</linearGradient>
<linearGradient id="paint7_linear_401_1780" x1="499.232" y1="106.7" x2="791.297" y2="132.942" gradientUnits="userSpaceOnUse">
<stop stop-color="#FB3C00"/>
<stop offset="1" stop-color="#FFB800"/>
</linearGradient>
<linearGradient id="paint8_linear_401_1780" x1="898" y1="269" x2="898" y2="321" gradientUnits="userSpaceOnUse">
<stop stop-color="white"/>
<stop offset="0.71875" stop-color="#F0F0F0"/>
<stop offset="1" stop-color="#E0E0E0"/>
</linearGradient>
<linearGradient id="paint9_linear_401_1780" x1="921.415" y1="301.221" x2="902.477" y2="285.828" gradientUnits="userSpaceOnUse">
<stop stop-color="#FEFEFE" stop-opacity="0"/>
<stop offset="1" stop-color="#D7D7D7"/>
</linearGradient>
<linearGradient id="paint10_linear_401_1780" x1="883.478" y1="214.675" x2="925.491" y2="256.648" gradientUnits="userSpaceOnUse">
<stop stop-color="#FFC851"/>
<stop offset="1" stop-color="#FFAE00"/>
</linearGradient>
<linearGradient id="paint11_linear_401_1780" x1="907.472" y1="217.92" x2="880.045" y2="245.324" gradientUnits="userSpaceOnUse">
<stop stop-color="#FFCB5B"/>
<stop offset="1" stop-color="#FAAE0B"/>
</linearGradient>
<linearGradient id="paint12_linear_401_1780" x1="945.045" y1="106.7" x2="1168.69" y2="122.035" gradientUnits="userSpaceOnUse">
<stop stop-color="#FB3C00"/>
<stop offset="1" stop-color="#FFB800"/>
</linearGradient>
<linearGradient id="paint13_linear_401_1780" x1="1288.82" y1="255.825" x2="1357.41" y2="324.418" gradientUnits="userSpaceOnUse">
<stop stop-color="white"/>
<stop offset="1" stop-color="#C3C3C3"/>
</linearGradient>
<linearGradient id="paint14_linear_401_1780" x1="1307.94" y1="255.347" x2="1251.7" y2="249.097" gradientUnits="userSpaceOnUse">
<stop stop-color="#C3C3C3" stop-opacity="0"/>
<stop offset="0.267" stop-color="#A4A4A4" stop-opacity="0.267"/>
<stop offset="0.542" stop-color="#8B8B8B" stop-opacity="0.542"/>
<stop offset="0.794" stop-color="#7C7C7C" stop-opacity="0.794"/>
<stop offset="1" stop-color="#777777"/>
</linearGradient>
<linearGradient id="paint15_linear_401_1780" x1="1287" y1="252.533" x2="1287" y2="261.487" gradientUnits="userSpaceOnUse">
<stop stop-color="#F18D00"/>
<stop offset="1" stop-color="#ED7103"/>
</linearGradient>
<linearGradient id="paint16_linear_401_1780" x1="1283.95" y1="217.373" x2="1287.78" y2="223.423" gradientUnits="userSpaceOnUse">
<stop stop-color="#FF7A7A"/>
<stop offset="1" stop-color="#F75900"/>
</linearGradient>
<linearGradient id="paint17_linear_401_1780" x1="1283.95" y1="288.821" x2="1288.23" y2="295.065" gradientUnits="userSpaceOnUse">
<stop stop-color="#FF7A7A"/>
<stop offset="1" stop-color="#F75900"/>
</linearGradient>
<linearGradient id="paint18_linear_401_1780" x1="1311.46" y1="253.343" x2="1311.54" y2="255.457" gradientUnits="userSpaceOnUse">
<stop stop-color="#FF7A7A"/>
<stop offset="1" stop-color="#F75900"/>
</linearGradient>
<linearGradient id="paint19_linear_401_1780" x1="1240.81" y1="253.343" x2="1240.89" y2="255.456" gradientUnits="userSpaceOnUse">
<stop stop-color="#FF7A7A"/>
<stop offset="1" stop-color="#F75900"/>
</linearGradient>
<linearGradient id="paint20_linear_401_1780" x1="1303.51" y1="228.03" x2="1304.39" y2="234.253" gradientUnits="userSpaceOnUse">
<stop stop-color="#FF7A7A"/>
<stop offset="1" stop-color="#F75900"/>
</linearGradient>
<linearGradient id="paint21_linear_401_1780" x1="1253.86" y1="278.477" x2="1255.06" y2="285.322" gradientUnits="userSpaceOnUse">
<stop stop-color="#FF7A7A"/>
<stop offset="1" stop-color="#F75900"/>
</linearGradient>
<linearGradient id="paint22_linear_401_1780" x1="1303.51" y1="278.477" x2="1304.59" y2="285.361" gradientUnits="userSpaceOnUse">
<stop stop-color="#FF7A7A"/>
<stop offset="1" stop-color="#F75900"/>
</linearGradient>
<linearGradient id="paint23_linear_401_1780" x1="1253.86" y1="228.03" x2="1254.83" y2="234.225" gradientUnits="userSpaceOnUse">
<stop stop-color="#FF7A7A"/>
<stop offset="1" stop-color="#F75900"/>
</linearGradient>
<linearGradient id="paint24_linear_401_1780" x1="1307.34" y1="265.995" x2="1284.18" y2="240.85" gradientUnits="userSpaceOnUse">
<stop stop-color="#C3C3C3" stop-opacity="0"/>
<stop offset="0.267" stop-color="#A4A4A4" stop-opacity="0.267"/>
<stop offset="0.542" stop-color="#8B8B8B" stop-opacity="0.542"/>
<stop offset="0.794" stop-color="#7C7C7C" stop-opacity="0.794"/>
<stop offset="1" stop-color="#777777"/>
</linearGradient>
<linearGradient id="paint25_linear_401_1780" x1="1304.98" y1="252.548" x2="1224.36" y2="259.987" gradientUnits="userSpaceOnUse">
<stop stop-color="#FFB92D"/>
<stop offset="1" stop-color="#F59500"/>
</linearGradient>
<linearGradient id="paint26_linear_401_1780" x1="1295.05" y1="269.357" x2="1302.72" y2="300.003" gradientUnits="userSpaceOnUse">
<stop stop-color="#FFB92D"/>
<stop offset="1" stop-color="#F59500"/>
</linearGradient>
<linearGradient id="paint27_linear_401_1780" x1="1235.77" y1="205.183" x2="1334.74" y2="302.049" gradientUnits="userSpaceOnUse">
<stop stop-color="#FFCD61"/>
<stop offset="1" stop-color="#FFAE00"/>
</linearGradient>
<linearGradient id="paint28_linear_401_1780" x1="1332.9" y1="106.7" x2="1583.23" y2="125.936" gradientUnits="userSpaceOnUse">
<stop stop-color="#FB3C00"/>
<stop offset="1" stop-color="#FFB800"/>
</linearGradient>
<clipPath id="clip0_401_1780">
<rect width="136" height="136" fill="white" transform="translate(400 185)"/>
</clipPath>
<clipPath id="clip1_401_1780">
<rect width="136" height="136" fill="white" transform="translate(830 185)"/>
</clipPath>
</defs>
</svg>
